<?xml version="1.0" encoding="UTF-8"?>
<svg width="16px" height="16px" viewBox="0 0 16 16" version="1.1" xmlns="http://www.w3.org/2000/svg" xmlns:xlink="http://www.w3.org/1999/xlink">
    <!-- Generator: Sketch 59.1 (86144) - https://sketch.com -->
    <title>dashboard</title>
    <desc>Created with Sketch.</desc>
    <g id="Design" stroke="none" stroke-width="1" fill="none" fill-rule="evenodd">
        <g id="Hackathon_Mint_Revised" transform="translate(-25.000000, -151.000000)" fill="#fff">
            <g id="dashboard" transform="translate(25.000000, 151.000000)">
                <path d="M7.38458333,7.78669776 C7.38208911,7.26861677 7.52865898,6.82589754 7.90733659,6.48813759 C8.17767657,6.24704629 8.50268943,6.15991185 8.84321234,6.15891697 C10.7402452,6.15361098 12.6372781,6.15087507 14.534311,6.15883407 C15.4020976,6.16248194 15.9925648,6.79630002 15.9952015,7.7246839 C16.0016382,9.95917243 16.0015607,12.1936609 15.9952015,14.4281495 C15.9925648,15.3565334 15.4022527,15.9902685 14.5342334,15.9939164 C12.6372005,16.0018754 10.7400901,16.002207 8.84313479,15.9938335 C7.95549526,15.9899369 7.39170534,15.3591864 7.38751763,14.3866135 C7.38263196,13.2763333 7.38635437,12.1659703 7.38635437,11.0556072 C7.38635437,9.96597074 7.39015433,8.87625134 7.38458333,7.78669776 Z" id="Fill-1"></path>
                <path d="M6.15228233,4.32628629 C6.15228233,5.24363268 6.14992693,6.16090028 6.15312354,7.07824667 C6.1553107,7.70110312 5.90681612,8.1949922 5.289281,8.46419287 C5.06930357,8.56007148 4.80516241,8.60214147 4.56011681,8.60592305 C3.57362529,8.62144325 2.58679728,8.61356497 1.60005339,8.61198932 C0.661847547,8.61057123 0.0102432717,8.01844005 0.00620544509,7.13552173 C-0.00245905792,5.25505618 -0.00153372265,3.37451184 0.00578483815,1.49404629 C0.00923381507,0.612230926 0.649818188,0.0145061726 1.59096828,0.00647033168 C2.58461012,-0.00195942298 3.5784202,-0.0024321195 4.57206205,0.00670667994 C5.53020466,0.0154515656 6.14580498,0.614988322 6.15110463,1.53501332 C6.1564884,2.46543764 6.15228233,3.39586197 6.15228233,4.32628629" id="Fill-3"></path>
                <path d="M11.6860322,4.92166306 C10.7306114,4.92166306 9.77519051,4.92557537 8.81984723,4.92038404 C8.09975132,4.9163965 7.59822132,4.53893435 7.42364791,3.8785825 C7.39672481,3.77686259 7.38431071,3.66867232 7.38461538,3.56349152 C7.38702629,2.77523741 7.37880194,1.98653188 7.40510434,1.19887966 C7.42419103,0.626404185 7.94612673,0.108174317 8.53207267,0.0338405326 C8.69772344,0.0128495144 8.86593461,0.00194020391 9.03305956,0.00171449404 C10.8469936,-0.000467368066 12.6609277,-0.000392131442 14.4749394,0.000962127794 C14.8164826,0.00126307429 15.1423529,0.0648380217 15.4229118,0.268954983 C15.8190771,0.557186491 15.9917108,0.95436063 15.9953574,1.42353622 C16.0007886,2.11812073 16.0022628,2.81293096 15.9953574,3.50751547 C15.9869779,4.35648554 15.4065407,4.91662221 14.5328202,4.92068498 C13.5839167,4.92512395 12.6349357,4.92166306 11.6860322,4.92166306" id="Fill-5"></path>
                <path d="M6.14354739,12.9161465 C6.14354739,13.4624613 6.1511154,14.0089404 6.14169743,14.5551731 C6.12841135,15.3267647 5.51952241,15.9732756 4.6180035,15.9873195 C3.59690993,16.0032523 2.57505956,16.0053876 1.55413417,15.9868267 C0.631256642,15.9701547 0.0151360324,15.3464754 0.00689530367,14.4429864 C-0.00235449393,13.4252574 -0.00227040486,12.4073642 0.00689530367,11.3896352 C0.0153042106,10.4565801 0.658249233,9.84784807 1.6170328,9.84686253 C2.58943879,9.845877 3.5617607,9.84595913 4.53416669,9.84686253 C5.50850674,9.84776594 6.13219536,10.4436039 6.14934953,11.3997369 C6.15843115,11.9050699 6.15094723,12.4106493 6.15094723,12.9161465 C6.14850864,12.9161465 6.14598597,12.9161465 6.14354739,12.9161465" id="Fill-7"></path>
            </g>
        </g>
    </g>
</svg>