<?xml version="1.0" encoding="UTF-8"?>
<svg width="19px" height="17px" viewBox="0 0 19 17" version="1.1" xmlns="http://www.w3.org/2000/svg" xmlns:xlink="http://www.w3.org/1999/xlink">
    <!-- Generator: Sketch 59.1 (86144) - https://sketch.com -->
    <title>wallet</title>
    <desc>Created with Sketch.</desc>
    <g id="Page-1" stroke="none" stroke-width="1" fill="none" fill-rule="evenodd" stroke-dasharray="0,0" stroke-linecap="round" stroke-linejoin="round">
        <g id="Wallet-Dashboard" transform="translate(-50.000000, -276.000000)" stroke="#A3AED0" stroke-width="1.20000005">
            <g id="Left">
                <g id="Menu-and-Logo" transform="translate(32.000000, 40.000000)">
                    <g id="All-Menu">
                        <g transform="translate(0.000000, 88.000000)">
                            <g id="Transactions" transform="translate(0.000000, 132.000000)">
                                <g transform="translate(18.000000, 16.000000)" id="82">
                                    <g>
                                        <g id="wallet" transform="translate(0.750000, 0.750000)">
                                            <path d="M16.5900002,10.1899996 L16.5900002,13.1199999 C16.5900002,14.5 15.4700001,15.6200008 14.0900002,15.6200008 L2.5,15.6200008 C1.12,15.6200008 0,14.5 0,13.1199999 L0,2.5 C0,1.12 1.12,0 2.5,0 L14.0900002,0 C15.4700001,0 16.5900002,1.12 16.5900002,2.5 L16.5900002,5.42999983" id="Vector" fill-rule="nonzero"></path>
                                            <path d="M16.6501951,10.1900535 C17.2001953,10.1900535 17.6501951,9.74005347 17.6501951,9.19005346 L17.6501951,6.43005371 C17.6501951,5.8800537 17.2001953,5.43005371 16.6501951,5.43005371 L11.7001953,5.43005371 C10.6001953,5.43005371 9.70019531,6.33005416 9.70019531,7.43005371 L9.70019531,8.19005346 C9.70019531,9.30005348 10.5901953,10.1900535 11.7001953,10.1900535 L16.6501951,10.1900535 Z" id="Vector" fill-rule="nonzero"></path>
                                            <line x1="12.3901367" y1="7.81005859" x2="13.1301365" y2="7.81005859" id="Vector"></line>
                                        </g>
                                    </g>
                                </g>
                            </g>
                        </g>
                    </g>
                </g>
            </g>
        </g>
    </g>
</svg>